# xmcd
#
# Track frame offsets:
#	150
#	10958
#	31445
#	51753
#	64150
#	89403
#	108550
#	128420
#	147693
#	159378
#	168858
#	184033
#	205358
#	217183
#	229460
#	237578
#	259988
#
# Disc length: 3647 seconds
#
# Revision: 1
# Processed by: cddbd v1.4b41PL2 Copyright (c) Steve Scherf et al.
# Submitted via: audiograbber 1.80
#
DISCID=010e3d11
DTITLE=House Of Cards - Now And Then
DYEAR=1900
DGENRE=
TTITLE0=Broken Man
TTITLE1=No Place For Me
TTITLE2=Rely On Someone Else
TTITLE3=Love You Tomorrow
TTITLE4=Willing To Work For Food
TTITLE5=Can't Get Enough
TTITLE6=Cold, Cold Feeling
TTITLE7=Ode To Carl
TTITLE8=Aldine's Boogie
TTITLE9=Sweet Little Girl
TTITLE10=Me and You
TTITLE11=Ups and Downs
TTITLE12=Walking To Witchita
TTITLE13=Scratch It
TTITLE14=Why Not?
TTITLE15=Lonesome Road
TTITLE16=Reflections
EXTD=
EXTT0=
EXTT1=
EXTT2=
EXTT3=
EXTT4=
EXTT5=
EXTT6=
EXTT7=
EXTT8=
EXTT9=
EXTT10=
EXTT11=
EXTT12=
EXTT13=
EXTT14=
EXTT15=
EXTT16=
PLAYORDER=
